<?xml version="1.0" encoding="UTF-8"?><svg xmlns="http://www.w3.org/2000/svg" xmlns:xlink="http://www.w3.org/1999/xlink" width="512" zoomAndPan="magnify" viewBox="0 0 384 383.999986" height="512" preserveAspectRatio="xMidYMid meet" version="1.0"><defs><clipPath id="clip-0"><path d="M 37 38.398438 L 348 38.398438 L 348 266 L 37 266 Z M 37 38.398438 " clip-rule="nonzero"/></clipPath><clipPath id="clip-1"><path d="M 36 258 L 304 258 L 304 345.898438 L 36 345.898438 Z M 36 258 " clip-rule="nonzero"/></clipPath><clipPath id="clip-2"><path d="M 297 38.398438 L 352 38.398438 L 352 345.898438 L 297 345.898438 Z M 297 38.398438 " clip-rule="nonzero"/></clipPath><clipPath id="clip-3"><path d="M 300 38.398438 L 352 38.398438 L 352 264 L 300 264 Z M 300 38.398438 " clip-rule="nonzero"/></clipPath></defs><g clip-path="url(#clip-0)"><path fill="rgb(48.629761%, 32.548523%, 22.749329%)" d="M 282.757812 263.730469 L 42.804688 265.367188 C 39.453125 265.386719 37.105469 262.058594 38.253906 258.910156 L 118.722656 38.816406 C 118.777344 38.667969 118.921875 38.574219 119.070312 38.574219 L 346.828125 38.574219 C 347.066406 38.574219 347.242188 38.804688 347.179688 39.039062 L 299.347656 259.203125 C 299.050781 260.304688 283.898438 263.722656 282.757812 263.730469 " fill-opacity="1" fill-rule="nonzero"/></g><g clip-path="url(#clip-1)"><path fill="rgb(37.649536%, 24.708557%, 16.859436%)" d="M 299.347656 259.203125 L 39.269531 258.640625 C 32.214844 263.152344 34.46875 344.835938 77.066406 345.960938 L 297.257812 345.960938 C 298.546875 345.960938 299.710938 345.234375 300.28125 344.085938 L 303.300781 337.992188 L 299.347656 259.203125 " fill-opacity="1" fill-rule="nonzero"/></g><path fill="rgb(90.589905%, 90.19928%, 90.19928%)" d="M 298.222656 271.335938 L 50.105469 271.628906 C 43.285156 274.757812 45.472656 331.335938 84.460938 331.433594 L 298.222656 331.433594 L 298.222656 271.335938 " fill-opacity="1" fill-rule="nonzero"/><path fill="rgb(81.17981%, 80.778503%, 80.778503%)" d="M 80.78125 309.890625 C 94.371094 296.6875 117.238281 292.582031 135.113281 289.175781 C 161.964844 284.0625 189.015625 280.039062 216.316406 278.425781 C 233.851562 277.394531 246.511719 276.886719 263.808594 273.878906 C 276.785156 271.621094 288.496094 271.414062 298.222656 271.335938 L 50.105469 271.628906 C 43.96875 274.441406 45.136719 320.578125 73.902344 329.8125 C 72.347656 323.363281 73.8125 316.664062 80.78125 309.890625 " fill-opacity="1" fill-rule="nonzero"/><g clip-path="url(#clip-2)"><path fill="rgb(37.649536%, 24.708557%, 16.859436%)" d="M 297.257812 345.960938 L 298.222656 345.820312 C 304.460938 342.859375 308.457031 338.503906 309.503906 333.125 L 351.535156 97.820312 L 347.742188 98.105469 L 347.308594 52.960938 L 347.246094 46.757812 L 347.164062 38.433594 L 299.347656 259.203125 L 297.257812 345.960938 " fill-opacity="1" fill-rule="nonzero"/></g><path fill="rgb(90.589905%, 90.19928%, 90.19928%)" d="M 347.308594 52.960938 L 307.167969 260.335938 C 306.554688 263.472656 304.71875 266.261719 301.992188 267.917969 C 298.914062 269.789062 294.1875 271.65625 287.648438 271.550781 L 297.480469 331.433594 C 297.480469 331.433594 302.347656 330.269531 304.570312 321.695312 C 306.65625 313.648438 347.730469 96.976562 347.730469 96.976562 L 347.308594 52.960938 " fill-opacity="1" fill-rule="nonzero"/><path fill="rgb(81.17981%, 80.778503%, 80.778503%)" d="M 347.308594 52.960938 L 307.167969 260.335938 C 306.714844 262.6875 305.5625 264.847656 303.863281 266.476562 L 303.863281 323.929688 C 304.121094 323.242188 304.359375 322.515625 304.570312 321.695312 C 306.65625 313.648438 347.730469 96.976562 347.730469 96.976562 L 347.308594 52.960938 " fill-opacity="1" fill-rule="nonzero"/><g clip-path="url(#clip-3)"><path fill="rgb(37.649536%, 24.708557%, 16.859436%)" d="M 346.828125 38.574219 L 351.109375 38.574219 C 351.660156 38.574219 352.070312 39.078125 351.957031 39.617188 L 307.25 259.914062 C 307.199219 260.179688 307.027344 260.40625 306.777344 260.523438 L 300.761719 263.4375 " fill-opacity="1" fill-rule="nonzero"/></g><path fill="rgb(98.429871%, 74.119568%, 4.309082%)" d="M 218.210938 115.476562 L 228.386719 75.285156 L 197.414062 75.25 L 186.753906 115.457031 L 140.3125 115.429688 L 134.613281 135.0625 L 181.546875 135.082031 L 160.148438 215.765625 L 192.8125 215.765625 L 213.242188 135.101562 L 264.371094 135.0625 L 268.847656 115.453125 L 218.210938 115.476562 " fill-opacity="1" fill-rule="nonzero"/></svg>